<svg width="133" height="29" viewBox="0 0 133 29" fill="none" xmlns="http://www.w3.org/2000/svg">
<path d="M20.1795 1L1 19C12.5774 9.4 28.4906 15 35 19L20.1795 1Z" stroke="#D4CCB6" stroke-linejoin="round"/>
<path d="M20.1795 4L1 22C12.5774 12.4 28.4906 18 35 22L20.1795 4Z" stroke="#D4CCB6" stroke-linejoin="round"/>
<path d="M43.194 8.68V22H40.116V8.68H43.194ZM54.8926 16.816C54.8926 17.104 54.8746 17.404 54.8386 17.716H47.8726C47.9206 18.34 48.1186 18.82 48.4666 19.156C48.8266 19.48 49.2646 19.642 49.7806 19.642C50.5486 19.642 51.0826 19.318 51.3826 18.67H54.6586C54.4906 19.33 54.1846 19.924 53.7406 20.452C53.3086 20.98 52.7626 21.394 52.1026 21.694C51.4426 21.994 50.7046 22.144 49.8886 22.144C48.9046 22.144 48.0286 21.934 47.2606 21.514C46.4926 21.094 45.8926 20.494 45.4606 19.714C45.0286 18.934 44.8126 18.022 44.8126 16.978C44.8126 15.934 45.0226 15.022 45.4426 14.242C45.8746 13.462 46.4746 12.862 47.2426 12.442C48.0106 12.022 48.8926 11.812 49.8886 11.812C50.8606 11.812 51.7246 12.016 52.4806 12.424C53.2366 12.832 53.8246 13.414 54.2446 14.17C54.6766 14.926 54.8926 15.808 54.8926 16.816ZM51.7426 16.006C51.7426 15.478 51.5626 15.058 51.2026 14.746C50.8426 14.434 50.3926 14.278 49.8526 14.278C49.3366 14.278 48.8986 14.428 48.5386 14.728C48.1906 15.028 47.9746 15.454 47.8906 16.006H51.7426ZM60.6024 22.144C59.7264 22.144 58.9464 21.994 58.2624 21.694C57.5784 21.394 57.0384 20.986 56.6424 20.47C56.2464 19.942 56.0244 19.354 55.9764 18.706H59.0184C59.0544 19.054 59.2164 19.336 59.5044 19.552C59.7924 19.768 60.1464 19.876 60.5664 19.876C60.9504 19.876 61.2444 19.804 61.4484 19.66C61.6644 19.504 61.7724 19.306 61.7724 19.066C61.7724 18.778 61.6224 18.568 61.3224 18.436C61.0224 18.292 60.5364 18.136 59.8644 17.968C59.1444 17.8 58.5444 17.626 58.0644 17.446C57.5844 17.254 57.1704 16.96 56.8224 16.564C56.4744 16.156 56.3004 15.61 56.3004 14.926C56.3004 14.35 56.4564 13.828 56.7684 13.36C57.0924 12.88 57.5604 12.502 58.1724 12.226C58.7964 11.95 59.5344 11.812 60.3864 11.812C61.6464 11.812 62.6364 12.124 63.3564 12.748C64.0884 13.372 64.5084 14.2 64.6164 15.232H61.7724C61.7244 14.884 61.5684 14.608 61.3044 14.404C61.0524 14.2 60.7164 14.098 60.2964 14.098C59.9364 14.098 59.6604 14.17 59.4684 14.314C59.2764 14.446 59.1804 14.632 59.1804 14.872C59.1804 15.16 59.3304 15.376 59.6304 15.52C59.9424 15.664 60.4224 15.808 61.0704 15.952C61.8144 16.144 62.4204 16.336 62.8884 16.528C63.3564 16.708 63.7644 17.008 64.1124 17.428C64.4724 17.836 64.6584 18.388 64.6704 19.084C64.6704 19.672 64.5024 20.2 64.1664 20.668C63.8424 21.124 63.3684 21.484 62.7444 21.748C62.1324 22.012 61.4184 22.144 60.6024 22.144ZM72.1515 19.39V22H70.5855C69.4695 22 68.5995 21.73 67.9755 21.19C67.3515 20.638 67.0395 19.744 67.0395 18.508V14.512H65.8155V11.956H67.0395V9.508H70.1175V11.956H72.1335V14.512H70.1175V18.544C70.1175 18.844 70.1895 19.06 70.3335 19.192C70.4775 19.324 70.7175 19.39 71.0535 19.39H72.1515ZM75.306 22.144C74.766 22.144 74.322 21.988 73.974 21.676C73.638 21.352 73.47 20.956 73.47 20.488C73.47 20.008 73.638 19.606 73.974 19.282C74.322 18.958 74.766 18.796 75.306 18.796C75.834 18.796 76.266 18.958 76.602 19.282C76.95 19.606 77.124 20.008 77.124 20.488C77.124 20.956 76.95 21.352 76.602 21.676C76.266 21.988 75.834 22.144 75.306 22.144ZM78.3341 16.978C78.3341 15.934 78.5441 15.022 78.9641 14.242C79.3961 13.462 79.9901 12.862 80.7461 12.442C81.5141 12.022 82.3901 11.812 83.3741 11.812C84.6341 11.812 85.6841 12.142 86.5241 12.802C87.3761 13.462 87.9341 14.392 88.1981 15.592H84.9221C84.6461 14.824 84.1121 14.44 83.3201 14.44C82.7561 14.44 82.3061 14.662 81.9701 15.106C81.6341 15.538 81.4661 16.162 81.4661 16.978C81.4661 17.794 81.6341 18.424 81.9701 18.868C82.3061 19.3 82.7561 19.516 83.3201 19.516C84.1121 19.516 84.6461 19.132 84.9221 18.364H88.1981C87.9341 19.54 87.3761 20.464 86.5241 21.136C85.6721 21.808 84.6221 22.144 83.3741 22.144C82.3901 22.144 81.5141 21.934 80.7461 21.514C79.9901 21.094 79.3961 20.494 78.9641 19.714C78.5441 18.934 78.3341 18.022 78.3341 16.978ZM89.2325 16.96C89.2325 15.928 89.4245 15.022 89.8085 14.242C90.2045 13.462 90.7385 12.862 91.4105 12.442C92.0825 12.022 92.8325 11.812 93.6605 11.812C94.3685 11.812 94.9865 11.956 95.5145 12.244C96.0545 12.532 96.4685 12.91 96.7565 13.378V11.956H99.8345V22H96.7565V20.578C96.4565 21.046 96.0365 21.424 95.4965 21.712C94.9685 22 94.3505 22.144 93.6425 22.144C92.8265 22.144 92.0825 21.934 91.4105 21.514C90.7385 21.082 90.2045 20.476 89.8085 19.696C89.4245 18.904 89.2325 17.992 89.2325 16.96ZM96.7565 16.978C96.7565 16.21 96.5405 15.604 96.1085 15.16C95.6885 14.716 95.1725 14.494 94.5605 14.494C93.9485 14.494 93.4265 14.716 92.9945 15.16C92.5745 15.592 92.3645 16.192 92.3645 16.96C92.3645 17.728 92.5745 18.34 92.9945 18.796C93.4265 19.24 93.9485 19.462 94.5605 19.462C95.1725 19.462 95.6885 19.24 96.1085 18.796C96.5405 18.352 96.7565 17.746 96.7565 16.978ZM114.877 11.848C116.125 11.848 117.115 12.226 117.847 12.982C118.591 13.738 118.963 14.788 118.963 16.132V22H115.903V16.546C115.903 15.898 115.729 15.4 115.381 15.052C115.045 14.692 114.577 14.512 113.977 14.512C113.377 14.512 112.903 14.692 112.555 15.052C112.219 15.4 112.051 15.898 112.051 16.546V22H108.991V16.546C108.991 15.898 108.817 15.4 108.469 15.052C108.133 14.692 107.665 14.512 107.065 14.512C106.465 14.512 105.991 14.692 105.643 15.052C105.307 15.4 105.139 15.898 105.139 16.546V22H102.061V11.956H105.139V13.216C105.451 12.796 105.859 12.466 106.363 12.226C106.867 11.974 107.437 11.848 108.073 11.848C108.829 11.848 109.501 12.01 110.089 12.334C110.689 12.658 111.157 13.12 111.493 13.72C111.841 13.168 112.315 12.718 112.915 12.37C113.515 12.022 114.169 11.848 114.877 11.848ZM124.194 13.378C124.494 12.91 124.908 12.532 125.436 12.244C125.964 11.956 126.582 11.812 127.29 11.812C128.118 11.812 128.868 12.022 129.54 12.442C130.212 12.862 130.74 13.462 131.124 14.242C131.52 15.022 131.718 15.928 131.718 16.96C131.718 17.992 131.52 18.904 131.124 19.696C130.74 20.476 130.212 21.082 129.54 21.514C128.868 21.934 128.118 22.144 127.29 22.144C126.594 22.144 125.976 22 125.436 21.712C124.908 21.424 124.494 21.052 124.194 20.596V26.788H121.116V11.956H124.194V13.378ZM128.586 16.96C128.586 16.192 128.37 15.592 127.938 15.16C127.518 14.716 126.996 14.494 126.372 14.494C125.76 14.494 125.238 14.716 124.806 15.16C124.386 15.604 124.176 16.21 124.176 16.978C124.176 17.746 124.386 18.352 124.806 18.796C125.238 19.24 125.76 19.462 126.372 19.462C126.984 19.462 127.506 19.24 127.938 18.796C128.37 18.34 128.586 17.728 128.586 16.96Z" fill="#D5CCB6"/>
</svg>
